<svg xmlns="http://www.w3.org/2000/svg" viewBox="0 0 512 512" width="100%" height="100%">
  <rect width="512" height="512" rx="100" fill="#0B1325"/>
  <!-- Book design in gold -->
  <path d="M160 120h192c16.5 0 30 13.5 30 30v212c0 16.5-13.5 30-30 30H160V120z" fill="none" stroke="#D89B3C" stroke-width="24" stroke-linecap="round" stroke-linejoin="round"/>
  <path d="M160 120H130c-16.5 0-30 13.5-30 30v212c0 16.5 13.5 30 30 30h30" fill="none" stroke="#D89B3C" stroke-width="24" stroke-linecap="round" stroke-linejoin="round"/>
  <!-- Ribbon -->
  <path d="M256 120v140l30-20 30 20V120" fill="#D89B3C"/>
  <!-- Glowing star -->
  <polygon points="256,210 270,245 305,245 277,265 288,300 256,280 224,300 235,265 207,245 242,245" fill="#FAF6EC"/>
</svg>
